<svg width="36" height="36" viewBox="0 0 36 36" fill="none" xmlns="http://www.w3.org/2000/svg">
<mask id="mask0_22_48" style="mask-type:alpha" maskUnits="userSpaceOnUse" x="0" y="0" width="36" height="36">
<rect width="36" height="36" fill="#D9D9D9"/>
</mask>
<g mask="url(#mask0_22_48)">
<path d="M18 33C15.35 33 13.1875 32.5813 11.5125 31.7438C9.8375 30.9062 9 29.825 9 28.5C9 27.625 9.3625 26.8625 10.0875 26.2125C10.8125 25.5625 11.8125 25.05 13.0875 24.675L13.95 27.525C13.525 27.65 13.1375 27.8063 12.7875 27.9938C12.4375 28.1813 12.2 28.35 12.075 28.5C12.4 28.9 13.15 29.25 14.325 29.55C15.5 29.85 16.725 30 18 30C19.275 30 20.5063 29.85 21.6938 29.55C22.8813 29.25 23.6375 28.9 23.9625 28.5C23.8375 28.35 23.6 28.1813 23.25 27.9938C22.9 27.8063 22.5125 27.65 22.0875 27.525L22.95 24.675C24.225 25.05 25.2188 25.5625 25.9313 26.2125C26.6438 26.8625 27 27.625 27 28.5C27 29.825 26.1625 30.9062 24.4875 31.7438C22.8125 32.5813 20.65 33 18 33ZM18 28.5C17.725 28.5 17.475 28.4187 17.25 28.2562C17.025 28.0938 16.8625 27.875 16.7625 27.6C16.1875 25.825 15.4625 24.3375 14.5875 23.1375C13.7125 21.9375 12.8625 20.7875 12.0375 19.6875C11.2375 18.5875 10.5438 17.45 9.95625 16.275C9.36875 15.1 9.075 13.65 9.075 11.925C9.075 9.425 9.9375 7.3125 11.6625 5.5875C13.3875 3.8625 15.5 3 18 3C20.5 3 22.6125 3.8625 24.3375 5.5875C26.0625 7.3125 26.925 9.425 26.925 11.925C26.925 13.65 26.6375 15.1 26.0625 16.275C25.4875 17.45 24.7875 18.5875 23.9625 19.6875C23.1625 20.7875 22.3188 21.9375 21.4313 23.1375C20.5438 24.3375 19.8125 25.825 19.2375 27.6C19.1375 27.875 18.975 28.0938 18.75 28.2562C18.525 28.4187 18.275 28.5 18 28.5ZM18 15.1125C18.875 15.1125 19.625 14.8 20.25 14.175C20.875 13.55 21.1875 12.8 21.1875 11.925C21.1875 11.05 20.875 10.3 20.25 9.675C19.625 9.05 18.875 8.7375 18 8.7375C17.125 8.7375 16.375 9.05 15.75 9.675C15.125 10.3 14.8125 11.05 14.8125 11.925C14.8125 12.8 15.125 13.55 15.75 14.175C16.375 14.8 17.125 15.1125 18 15.1125Z" fill="#00A3B4"/>
</g>
</svg>
