<svg width="29" height="29" viewBox="0 0 29 29" fill="none" xmlns="http://www.w3.org/2000/svg">
<mask id="mask0_19_174" style="mask-type:alpha" maskUnits="userSpaceOnUse" x="0" y="0" width="29" height="29">
<rect width="29" height="29" fill="#D9D9D9"/>
</mask>
<g mask="url(#mask0_19_174)">
<path d="M11.4792 26.5832C10.2911 26.5832 9.28914 26.1754 8.47352 25.3597C7.65789 24.5441 7.25008 23.5422 7.25008 22.354C7.25008 22.1728 7.27525 22.0318 7.3256 21.9311C7.37595 21.8304 7.37091 21.7498 7.3105 21.6894C7.25008 21.629 7.16953 21.624 7.06883 21.6743C6.96814 21.7247 6.82716 21.7498 6.64591 21.7498C5.45772 21.7498 4.45581 21.342 3.64019 20.5264C2.82456 19.7108 2.41675 18.7089 2.41675 17.5207C2.41675 16.3325 2.82456 15.3306 3.64019 14.5149C4.45581 13.6993 5.45772 13.2915 6.64591 13.2915C7.10911 13.2915 7.53203 13.3519 7.91466 13.4728C8.2973 13.5936 8.6598 13.7748 9.00216 14.0165L14.0167 9.00192C13.7751 8.65956 13.5938 8.29706 13.473 7.91442C13.3522 7.53178 13.2917 7.10886 13.2917 6.64567C13.2917 5.45748 13.6996 4.45557 14.5152 3.63994C15.3308 2.82432 16.3327 2.4165 17.5209 2.4165C18.7091 2.4165 19.711 2.82432 20.5266 3.63994C21.3423 4.45557 21.7501 5.45748 21.7501 6.64567C21.7501 6.82692 21.7249 6.96789 21.6746 7.06859C21.6242 7.16928 21.6292 7.24984 21.6897 7.31025C21.7501 7.37067 21.8306 7.3757 21.9313 7.32536C22.032 7.27501 22.173 7.24984 22.3542 7.24984C23.5424 7.24984 24.5444 7.65765 25.36 8.47327C26.1756 9.2889 26.5834 10.2908 26.5834 11.479C26.5834 12.6672 26.1756 13.6691 25.36 14.4847C24.5444 15.3004 23.5424 15.7082 22.3542 15.7082C21.8911 15.7082 21.4681 15.6478 21.0855 15.5269C20.7029 15.4061 20.3404 15.2248 19.998 14.9832L14.9834 19.9978C15.2251 20.3401 15.4063 20.7026 15.5272 21.0853C15.648 21.4679 15.7084 21.8908 15.7084 22.354C15.7084 23.5422 15.3006 24.5441 14.485 25.3597C13.6694 26.1754 12.6674 26.5832 11.4792 26.5832ZM11.4792 24.1665C12.0029 24.1665 12.4358 23.9953 12.7782 23.653C13.1206 23.3106 13.2917 22.8776 13.2917 22.354C13.2917 22.1728 13.2666 21.9965 13.2162 21.8254C13.1659 21.6542 13.0904 21.488 12.9897 21.3269C12.6473 20.8436 12.5063 20.325 12.5667 19.7712C12.6272 19.2174 12.8688 18.729 13.2917 18.3061L18.3063 13.2915C18.7292 12.8686 19.2176 12.6269 19.7714 12.5665C20.3253 12.5061 20.8438 12.6471 21.3272 12.9894C21.4883 13.0901 21.6544 13.1656 21.8256 13.216C21.9968 13.2663 22.173 13.2915 22.3542 13.2915C22.8779 13.2915 23.3108 13.1203 23.6532 12.778C23.9956 12.4356 24.1667 12.0026 24.1667 11.479C24.1667 10.9554 23.9956 10.5224 23.6532 10.18C23.3108 9.83768 22.8779 9.6665 22.3542 9.6665C21.6494 9.6665 21.156 9.63126 20.874 9.56077C20.5921 9.49029 20.3001 9.304 19.998 9.00192C19.6959 8.69984 19.5096 8.40782 19.4391 8.12588C19.3687 7.84393 19.3334 7.35053 19.3334 6.64567C19.3334 6.12206 19.1622 5.68907 18.8199 5.34671C18.4775 5.00435 18.0445 4.83317 17.5209 4.83317C16.9973 4.83317 16.5643 5.00435 16.222 5.34671C15.8796 5.68907 15.7084 6.12206 15.7084 6.64567C15.7084 6.8672 15.7286 7.05348 15.7688 7.20452C15.8091 7.35557 15.8897 7.51164 16.0105 7.67275C16.3529 8.15609 16.4938 8.67466 16.4334 9.22848C16.373 9.7823 16.1313 10.2707 15.7084 10.6936L10.6938 15.7082C10.2709 16.1311 9.78255 16.3728 9.22873 16.4332C8.67491 16.4936 8.15633 16.3526 7.673 16.0103C7.51189 15.9096 7.34574 15.834 7.17456 15.7837C7.00338 15.7333 6.82716 15.7082 6.64591 15.7082C6.1223 15.7082 5.68932 15.8794 5.34696 16.2217C5.0046 16.5641 4.83341 16.9971 4.83341 17.5207C4.83341 18.0443 5.0046 18.4773 5.34696 18.8196C5.68932 19.162 6.1223 19.3332 6.64591 19.3332C7.35078 19.3332 7.84418 19.3684 8.12612 19.4389C8.40807 19.5094 8.70008 19.6957 9.00216 19.9978C9.30425 20.2998 9.49053 20.5919 9.56102 20.8738C9.6315 21.1557 9.66675 21.6491 9.66675 22.354C9.66675 22.8776 9.83793 23.3106 10.1803 23.653C10.5227 23.9953 10.9556 24.1665 11.4792 24.1665Z" fill="#F7FFF7"/>
</g>
</svg>
